# xmcd
#
# Track frame offsets: 
#        150
#        14260
#        31595
#        44890
#        60110
#        87898
#        107802
#        134118
#        151018
#        169210
#        190415
#        209445
#        224208
#        243898
#
# Disc length: 3473 seconds
#
# Revision: 0
# Processed by: cddbd v1.5.2PL0 Copyright (c) Steve Scherf et al.
# Submitted via: ExactAudioCopyFreeDBPlugin 1.0
#
DISCID=c50d8f0e
DTITLE=พงษ์เทพ กระโดนชำนาญ - ดีที่สุด Disc 2
DYEAR=1900
DGENRE=Thai Country
TTITLE0=ดาวน์สาว
TTITLE1=เขาใหญ่
TTITLE2=หนุ่มก่อสร้าง
TTITLE3=ลมรำเพย
TTITLE4=โคราชา
TTITLE5=ตายหยังเขียด
TTITLE6=ลิงทะโมน
TTITLE7=คนกับหมา
TTITLE8=คนจนรุ่นใหม่
TTITLE9=ตรงเส้นขอบฟ้า
TTITLE10=วันเวลา
TTITLE11=นิทรา
TTITLE12=ลุงใส
TTITLE13=ห้วยแถลง
EXTD=
EXTT0=
EXTT1=
EXTT2=
EXTT3=
EXTT4=
EXTT5=
EXTT6=
EXTT7=
EXTT8=
EXTT9=
EXTT10=
EXTT11=
EXTT12=
EXTT13=
PLAYORDER=
